<?xml version="1.0" encoding="UTF-8"?>
<svg width="100pt" height="100pt" version="1.1" viewBox="0 0 100 100" xmlns="http://www.w3.org/2000/svg">
 <path d="m48 19c-4.1562 0-7.5078 3.2461-7.875 7.3125-1.2266-0.76562-2.5859-1.3125-4.125-1.3125-4.1758 0-7.5391 3.2812-7.875 7.375-4.5781 0.91016-8.125 4.7852-8.125 9.625v8c0 4.9922 2.7656 9.957 6 14.438 3.0234 4.1836 6.4883 7.8086 9 10.344v5.2188c0 1.0469 0.95312 2 2 2h34c1.0469 0 2-0.95312 2-2v-10.312c4.3203-4.6445 7-10.84 7-17.688v-15c0-4.3984-3.6016-8-8-8-1.5391 0-2.8984 0.54688-4.125 1.3125-0.36719-4.0664-3.7188-7.3125-7.875-7.3125-1.7031 0-3.1992 0.64453-4.5 1.5625-1.0469-3.2031-3.9609-5.5625-7.5-5.5625zm0 4c2.25 0 4 1.75 4 4v4c0 1.1055 0.89453 2 2 2s2-0.89453 2-2c0-2.25 1.75-4 4-4s4 1.75 4 4v6c0 1.1055 0.89453 2 2 2s2-0.89453 2-2c0-2.25 1.75-4 4-4s4 1.75 4 4v15c0 6.1133-2.4336 11.59-6.4062 15.562-0.37891 0.375-0.59766 0.90625-0.59375 1.4375v9h-30v-4c0.003906-0.53125-0.21484-1.0625-0.59375-1.4375-2.4727-2.4727-6.1406-6.2969-9.1562-10.469s-5.25-8.6914-5.25-12.094v-8c0-2.6562 1.6484-4.8477 4-5.6562v11.656c-0.015625 1.0547 0.94141 2.0312 2 2.0312s2.0156-0.97266 2-2.0312v-15c0-2.25 1.75-4 4-4s4 1.75 4 4c0 1.1055 0.89453 2 2 2s2-0.89453 2-2v-6c0-2.25 1.75-4 4-4z"/>
</svg>
