<?xml version="1.0" encoding="UTF-8"?>
<svg id="Layer_2" data-name="Layer 2" xmlns="http://www.w3.org/2000/svg" viewBox="0 0 767.2 223">
  <defs>
    <style>
      .cls-1 {
        fill: #231f20;
      }
    </style>
  </defs>
  <g id="Maps">
    <g>
      <path class="cls-1" d="M64.56,134.44c-2.51.57-3.76.85-6.27,1.43,3.66,15.84,7.32,31.67,10.97,47.51-13.42,3.1-20.12,4.73-33.47,8.16C23.86,145.08,11.93,98.62,0,52.15c14.47-3.71,28.98-7.22,43.55-10.52,13.42-3.28,29.24-4.14,41.26,3.07,11.22,6.73,16.8,20.38,19.16,32.81,2.36,12.4,2.4,27.08-5.07,37.76-7.64,10.92-21.46,16.5-34.34,19.17ZM46.88,62.24c-2.13.48-3.19.73-5.32,1.22,4.03,17.44,8.06,34.88,12.09,52.32,2.05-.47,3.08-.71,5.13-1.18,5.22-1.19,8.51-4.07,9.9-8.7,1.39-4.63,1.09-11.63-.95-21.01-1.97-9.1-4.57-15.46-7.84-19.07-3.26-3.61-7.61-4.81-13.02-3.59Z"/>
      <path class="cls-1" d="M191.15,51.55c4.66,35.78,9.32,71.57,13.98,107.35-11.24,1.46-16.85,2.25-28.06,3.94-1.06-4.45-1.58-6.67-2.65-11.11-1.58,4.58-4.17,8.42-7.78,11.53-3.61,3.11-7.99,5.09-13.15,5.95-8.61,1.45-15.49-.18-20.75-4.98-5.26-4.79-8.9-12.37-10.85-22.79-4.78-25.55-9.56-51.09-14.34-76.64,11.6-2.19,23.24-4.22,34.89-6.11l11.87,72.71c1.43,8.76,4.06,12.83,7.88,12.22,2.55-.4,4.17-2.03,4.87-4.9.7-2.86.56-7.55-.45-14.06-3.5-22.72-6.99-45.43-10.49-68.15,11.65-1.81,23.33-3.47,35.03-4.98Z"/>
      <path class="cls-1" d="M217.88,157.3c-6.02-49.76-12.04-99.51-18.06-149.27,12.01-1.47,24.06-2.78,36.1-3.94,4.87,49.88,9.73,99.76,14.6,149.64-13.07,1.27-19.6,1.99-32.64,3.57Z"/>
      <path class="cls-1" d="M263.31,152.55c-4.41-49.92-8.83-99.85-13.24-149.77,12.04-1.08,24.12-2.01,36.19-2.78,3.26,50.01,6.51,100.02,9.77,150.04-13.09.85-19.64,1.35-32.71,2.51Z"/>
      <path class="cls-1" d="M303.85,108.45c-.53-9.18-.8-13.77-1.33-22.94,18.28-.97,36.54-1.68,54.84-2.15.19,9.19.29,13.79.48,22.98-18.02.46-36,1.17-53.99,2.12Z"/>
      <path class="cls-1" d="M443.49,148.13c-10.92-.43-16.39-.59-27.31-.81-.56-5.17-.85-7.75-1.42-12.92-4.83,10.37-12.78,15.45-24,15.43-7.75-.01-13.96-2.62-18.7-7.86-4.75-5.24-7.24-12.43-7.38-21.59-.19-11.45,4.05-20.73,12.5-27.75,10.14-8.42,23.01-9.9,35.59-11.32.04-2.66.07-3.99.11-6.66.11-6.87-.31-11.68-1.27-14.41-.97-2.73-2.8-4.13-5.5-4.16-4.55-.05-7.21,5.02-7.94,15.18-12.82-.09-19.22-.06-32.04.13,1-11.33,5-20.09,12.1-26.23,7.09-6.13,16.85-9.19,29.15-9.04,12.98.16,22.91,3.81,29.64,10.76,6.74,6.95,9.79,16.61,9.31,28.92-.94,24.11-1.89,48.22-2.83,72.33ZM403.32,128.01c5.78.06,8.78-6.47,9-19.64.08-4.9.12-7.34.2-12.24-5.1.34-9.02,2.31-11.74,5.87-2.73,3.56-4.09,8.35-4.13,14.36-.05,7.73,2.18,11.61,6.67,11.65Z"/>
      <path class="cls-1" d="M454.38,107.53c.42-9.18.63-13.78,1.05-22.96,18.29.92,36.53,2.1,54.79,3.52-.76,9.16-1.14,13.74-1.9,22.9-17.97-1.4-35.94-2.55-53.94-3.46Z"/>
      <path class="cls-1" d="M517.97,153.02c4.4-47.77,8.8-95.54,13.2-143.3,26.55,2.57,52.98,5.69,79.4,9.37-1.32,9.18-1.99,13.78-3.31,22.96-13.74-1.91-27.47-3.7-41.25-5.37-1.53,13.16-3.07,26.31-4.6,39.47,13.49,1.57,20.24,2.44,33.7,4.32-1.27,9.1-1.91,13.66-3.18,22.76-13.26-1.85-19.9-2.7-33.18-4.25-2.24,19.2-4.48,38.4-6.72,57.6-13.61-1.59-20.43-2.3-34.07-3.55Z"/>
      <path class="cls-1" d="M594.76,162.21c5.27-35.7,10.53-71.4,15.8-107.1,12.07,1.78,18.11,2.73,30.15,4.76-.49,6.02-.74,9.02-1.24,15.04,6.53-10.22,14.86-14.47,24.81-12.63,2.02.37,3.58.88,4.68,1.53-2.56,13.68-3.84,20.52-6.41,34.2-.8-.29-1.64-.56-2.53-.8-.89-.24-2.08-.49-3.56-.77-5.27-.96-9.62-.2-13.01,2.26-3.39,2.46-5.54,6.38-6.46,11.74-3.25,18.98-6.51,37.97-9.76,56.95-12.97-2.22-19.47-3.26-32.48-5.18Z"/>
      <path class="cls-1" d="M767.2,86.69c-21.89,36.13-43.01,72.67-63.39,109.67-5.87,10.69-12.47,18.11-19.81,22.28-7.34,4.18-15.4,5.34-24.29,3.54-6.03-1.22-11.61-3.48-16.79-6.79,3.44-7.74,5.17-11.61,8.67-19.34,1.61.75,3.19,1.42,4.74,2.02,1.55.6,3.02,1.03,4.4,1.31,3.98.8,7.41.44,10.28-1.08,2.87-1.52,5.63-4.71,8.27-9.57,1.75-3.23,2.63-4.84,4.39-8.07-2.91-38.42-6.54-76.75-10.88-115.04,11.95,2.26,23.88,4.67,35.77,7.24-1.17,25.23-2.5,50.44-4.01,75.65,9.02-23.53,18.26-46.97,27.61-70.37,11.71,2.7,23.4,5.55,35.03,8.55Z"/>
    </g>
  </g>
</svg>